HIERARCHY
ROOT Hips
{
 OFFSET 0.000000 0.000000 0.000000
 CHANNELS 6 Xposition Yposition Zposition Yrotation Xrotation Zrotation
 JOINT Chest
 {
  OFFSET 0.000000 9.876139 0.000104
  CHANNELS 3 Yrotation Xrotation Zrotation
  JOINT Chest2
  {
   OFFSET 0.000000 10.876137 -0.000189
   CHANNELS 3 Yrotation Xrotation Zrotation
   JOINT Chest3
   {
    OFFSET 0.000000 9.827065 0.000000
    CHANNELS 3 Yrotation Xrotation Zrotation
    JOINT Chest4
    {
     OFFSET 0.000000 9.827065 0.000000
     CHANNELS 3 Yrotation Xrotation Zrotation
     JOINT Neck
     {
      OFFSET 0.000000 13.837564 0.000000
      CHANNELS 3 Yrotation Xrotation Zrotation
      JOINT Head
      {
       OFFSET 0.000000 9.147059 -0.000448
       CHANNELS 3 Yrotation Xrotation Zrotation
       End Site
       {
        OFFSET 0.000000 17.513050 -0.000234
       }
      }
     }
     JOINT RightCollar
     {
      OFFSET -3.007721 7.720841 0.000000
      CHANNELS 3 Yrotation Xrotation Zrotation
      JOINT RightShoulder
      {
       OFFSET -14.032560 0.000000 0.000000
       CHANNELS 3 Yrotation Xrotation Zrotation
       JOINT RightElbow
       {
        OFFSET -30.066962 0.000000 0.000000
        CHANNELS 3 Yrotation Xrotation Zrotation
        JOINT RightWrist
        {
         OFFSET -24.575761 0.000000 0.000000
         CHANNELS 3 Yrotation Xrotation Zrotation
         JOINT Prop1
         {
          OFFSET -3.508170 -1.002334 -2.004669
          CHANNELS 3 Yrotation Xrotation Zrotation
          End Site
          {
           OFFSET -75.170729 -33.091210 23.052389
          }
         }
         End Site
         {
          OFFSET -18.342718 0.000000 0.000000
         }
        }
       }
      }
     }
     JOINT LeftCollar
     {
      OFFSET 3.007721 7.720841 0.000000
      CHANNELS 3 Yrotation Xrotation Zrotation
      JOINT LeftShoulder
      {
       OFFSET 14.032560 0.000000 0.000000
       CHANNELS 3 Yrotation Xrotation Zrotation
       JOINT LeftElbow
       {
        OFFSET 30.066962 0.000000 0.000000
        CHANNELS 3 Yrotation Xrotation Zrotation
        JOINT LeftWrist
        {
         OFFSET 24.575761 0.000000 0.000000
         CHANNELS 3 Yrotation Xrotation Zrotation
         End Site
         {
          OFFSET 18.342718 0.000000 0.000000
         }
        }
       }
      }
     }
    }
   }
  }
 }
 JOINT RightHip
 {
  OFFSET -8.019680 -0.000509 -0.000052
  CHANNELS 3 Yrotation Xrotation Zrotation
  JOINT RightKnee
  {
   OFFSET 0.000000 -41.754945 0.000049
   CHANNELS 3 Yrotation Xrotation Zrotation
   JOINT RightAnkle
   {
    OFFSET 0.000000 -40.737371 0.000083
    CHANNELS 3 Yrotation Xrotation Zrotation
    JOINT RightToe
    {
     OFFSET 0.000000 -6.498123 14.692914
     CHANNELS 3 Yrotation Xrotation Zrotation
     End Site
     {
      OFFSET 0.000000 -1.503208 6.410318
     }
    }
   }
  }
 }
 JOINT LeftHip
 {
  OFFSET 8.019680 -0.000509 -0.000052
  CHANNELS 3 Yrotation Xrotation Zrotation
  JOINT LeftKnee
  {
   OFFSET 0.000000 -41.754945 0.000049
   CHANNELS 3 Yrotation Xrotation Zrotation
   JOINT LeftAnkle
   {
    OFFSET 0.000000 -40.737371 0.000083
    CHANNELS 3 Yrotation Xrotation Zrotation
    JOINT LeftToe
    {
     OFFSET 0.000000 -6.498123 14.692914
     CHANNELS 3 Yrotation Xrotation Zrotation
     End Site
     {
      OFFSET 0.000000 -1.503208 6.410318
     }
    }
   }
  }
 }
}
MOTION
Frames: 8
Frame Time: 0.016667
-2.669978 71.163061 -20.915307 -150.885475 -0.522075 -0.098302 -2.683063 11.176791 0.827830 -1.331399 4.952942 0.601597 -1.331399 4.952942 0.601597 -1.002814 3.713422 0.461733 -11.640728 11.612551 4.291982 -24.024126 -12.744905 13.035293 7.294607 7.282460 7.299210 -18.373242 -48.260064 82.596608 33.940938 -4.193533 -2.469212 -3.117285 1.739384 -13.896044 -24.034222 5.742610 -81.301878 8.735344 -0.210913 -8.729828 15.540714 -2.163088 -61.386620 -28.381965 7.439105 -4.280450 0.827326 -7.107886 2.020141 4.044903 -57.316328 -42.354027 -37.298509 62.152007 -22.061356 11.818944 -1.000192 5.576450 0.303593 -1.457205 -1.063508 38.157940 -25.691399 37.109971 -51.736536 41.840002 -43.176726 2.087038 -33.294226 -1.160378 -0.784263 -0.948125 -0.833075
-2.268718 71.167761 -20.767978 -151.509088 0.392325 -0.472298 -2.448475 10.711492 0.881748 -1.156895 4.770489 0.573424 -1.156895 4.770489 0.573424 -0.871656 3.576801 0.438870 -11.604717 11.632778 4.375300 -23.984335 -12.695451 13.172910 7.119019 6.980067 7.406475 -17.850420 -47.721415 82.630640 34.211424 -4.830161 -2.423948 -2.833441 1.955506 -13.890995 -24.113594 5.859162 -81.199358 8.835875 -0.232056 -8.684890 15.349710 -1.762035 -60.931978 -26.401522 8.117084 -3.949502 0.870830 -7.137584 1.445817 4.610334 -58.487432 -42.048662 -36.489025 61.886692 -21.158732 11.771084 -0.008979 5.997119 0.301996 -1.490817 -1.286764 37.822260 -26.486620 37.079661 -51.331415 42.072464 -43.260817 2.023129 -33.221033 -1.152825 -0.532126 -0.902135 -0.820144
-1.817483 71.153856 -20.619451 -152.271398 1.257071 -0.662204 -2.243849 10.367635 0.839033 -0.997154 4.573409 0.529277 -0.997154 4.573409 0.529277 -0.751437 3.429208 0.404224 -11.531890 11.613618 4.450013 -23.880830 -12.728221 13.290392 7.144747 6.634752 7.403238 -17.243389 -47.110955 82.413872 34.468187 -5.488752 -2.391833 -2.517834 2.099643 -13.908585 -24.167571 5.885172 -81.144277 8.979382 -0.252707 -8.753194 15.576575 -1.369054 -60.591459 -24.645263 8.822339 -3.587779 0.944575 -7.176688 0.955583 4.691772 -59.834282 -41.373937 -35.599665 61.238386 -20.464251 12.216530 0.495613 6.353875 0.233551 -1.011935 -1.474949 37.909027 -27.283885 36.840371 -51.079918 42.298539 -43.306404 2.026538 -33.079813 -1.077326 -0.422636 -0.881648 -0.895153
-1.353546 71.154025 -20.483811 -153.176927 1.817762 -0.683450 -2.009514 10.145845 0.698109 -0.846286 4.448080 0.464789 -0.846286 4.448080 0.464789 -0.637784 3.335426 0.354587 -11.438043 11.576981 4.512852 -23.737047 -12.800578 13.381987 7.376503 6.576107 7.342394 -16.678052 -46.750253 82.316751 34.718902 -5.812765 -2.649377 -2.230826 2.051488 -13.965967 -24.134595 5.800849 -80.853454 9.179456 -0.352487 -8.871638 16.272222 -0.989090 -60.307678 -23.086476 9.601572 -3.348853 0.933407 -7.230983 0.685348 4.294486 -60.994805 -40.257610 -34.140660 60.320174 -19.434639 12.695831 0.793496 6.454565 0.170204 -0.336419 -1.498835 38.415925 -27.835507 36.546434 -51.055793 42.401588 -43.344580 2.211049 -32.889699 -0.943214 -0.444398 -0.873393 -1.032117
-0.925042 71.182549 -20.411960 -154.184654 2.035315 -0.664025 -1.714147 10.074838 0.511543 -0.683062 4.401908 0.395810 -0.683062 4.401908 0.395810 -0.514900 3.300996 0.301640 -11.358773 11.530904 4.579729 -23.624624 -12.885863 13.489134 7.749774 7.025087 7.319950 -16.002070 -46.979464 82.190166 34.875606 -6.019705 -3.235238 -1.955193 1.874603 -14.106262 -24.065422 5.658788 -80.501542 9.355097 -0.294460 -8.947955 17.141130 -0.722475 -60.147122 -21.743569 10.199484 -3.191383 0.844399 -7.326483 0.671768 3.053856 -61.727867 -38.269845 -31.449518 59.304342 -17.480809 12.746853 0.861739 6.401240 0.149749 0.365723 -1.437701 39.424517 -28.217363 36.295492 -51.238716 42.418244 -43.261527 2.421283 -32.675780 -0.751704 -0.622772 -0.870532 -1.217305
-0.544153 71.230359 -20.417514 -154.981422 2.142207 -0.578075 -1.478406 10.081930 0.322971 -0.582638 4.375082 0.327376 -0.582638 4.375082 0.327376 -0.439114 3.281004 0.249591 -11.293935 11.480241 4.634799 -23.535901 -12.979193 13.580778 8.196223 7.838495 7.341359 -15.353619 -47.746674 81.869119 34.854611 -6.449302 -3.684716 -1.631049 1.816639 -14.388358 -24.032735 5.523973 -80.367493 9.492911 -0.139761 -8.998841 17.952728 -0.306439 -60.028021 -20.679220 10.292824 -3.089984 0.750156 -7.453555 0.821103 0.776477 -62.184955 -35.570529 -28.333139 58.216383 -15.425128 12.952311 0.969651 6.165783 0.163257 0.738402 -1.170444 40.483881 -28.485930 35.992967 -51.360977 42.375813 -42.973150 2.659458 -32.376152 -0.601037 -0.918748 -0.901677 -1.418546
-0.193168 71.292605 -20.553426 -155.224125 1.919138 -0.660610 -1.571311 10.410353 0.374100 -0.538763 4.364523 0.263837 -0.538763 4.364523 0.263837 -0.405764 3.273163 0.201636 -11.250239 11.433002 4.684598 -23.484273 -13.062810 13.669766 8.288732 8.047250 7.256892 -14.773475 -48.051058 81.479960 34.724840 -6.640817 -3.895431 -1.400493 1.720154 -14.573226 -23.941508 5.305922 -80.386905 9.480373 -0.042971 -9.075565 18.838992 0.261398 -59.868027 -19.839627 10.129435 -3.017668 0.696315 -7.617953 0.813653 -3.447909 -62.315611 -31.622360 -26.948958 57.947005 -15.598197 14.584303 0.966822 6.359860 0.164814 0.184091 -1.156962 40.745738 -28.445965 36.148704 -51.454276 42.091802 -42.654523 3.143281 -32.224879 -0.542110 -1.218030 -0.775611 -1.584762
0.095383 71.373138 -20.792472 -155.089145 1.472213 -0.718703 -1.710128 10.943033 0.527739 -0.605171 4.366715 0.199152 -0.605171 4.366715 0.199152 -0.455084 3.274844 0.153623 -11.216346 11.395431 4.722352 -23.444134 -13.129586 13.737403 8.149147 7.603782 7.117171 -14.672426 -47.818782 81.394086 34.591915 -6.288296 -3.841388 -1.257907 1.564932 -14.700236 -23.807046 5.043190 -80.225879 9.345391 0.115713 -9.183298 19.290746 0.534055 -59.859162 -18.635293 9.620927 -2.711936 0.656410 -7.730905 0.427609 -6.128009 -62.235061 -29.459646 -29.653462 59.845549 -17.862907 15.922229 0.060336 4.273149 0.796327 -0.708691 -0.476998 40.559547 -28.079586 36.531055 -51.251054 41.746072 -42.193074 3.665015 -32.034788 -0.534877 -1.664573 -0.669198 -1.763792
